name C:\Users\u0101727\Documents\MyRepositories\upper-imu-dc\Results\main_tracking\Case_43\FLX01_angularVelocities_groundFrame.mot
datacolumns 4
datarows 47
range 0.51000000 0.97000000
endheader 
time	radius_imu_x	radius_imu_y	radius_imu_z	
          0.51000000	         -0.34671107	         -2.84785866	          0.42765298	
          0.52000000	         -0.34334297	         -2.84608448	          0.43379313	
          0.53000000	         -0.34035555	         -2.84371282	          0.44020910	
          0.54000000	         -0.33807106	         -2.84067334	          0.44694418	
          0.55000000	         -0.33670266	         -2.83693689	          0.45418732	
          0.56000000	         -0.33643373	         -2.83255368	          0.46211625	
          0.57000000	         -0.33741787	         -2.82767834	          0.47090051	
          0.58000000	         -0.33977717	         -2.82255344	          0.48070783	
          0.59000000	         -0.34359484	         -2.81749512	          0.49170187	
          0.60000000	         -0.34891433	         -2.81286784	          0.50403792	
          0.61000000	         -0.35574169	         -2.80905003	          0.51785918	
          0.62000000	         -0.36404843	         -2.80639470	          0.53329247	
          0.63000000	         -0.37377551	         -2.80519033	          0.55044355	
          0.64000000	         -0.38483748	         -2.80562939	          0.56939242	
          0.65000000	         -0.39712502	         -2.80779296	          0.59018880	
          0.66000000	         -0.41050626	         -2.81165313	          0.61284899	
          0.67000000	         -0.42482826	         -2.81708590	          0.63735460	
          0.68000000	         -0.43992037	         -2.82388498	          0.66365282	
          0.69000000	         -0.45560019	         -2.83177225	          0.69165754	
          0.70000000	         -0.47168092	         -2.84040626	          0.72125120	
          0.71000000	         -0.48797785	         -2.84939346	          0.75228740	
          0.72000000	         -0.50431216	         -2.85830680	          0.78459518	
          0.73000000	         -0.52051169	         -2.86671300	          0.81798521	
          0.74000000	         -0.53641116	         -2.87420531	          0.85225823	
          0.75000000	         -0.55185310	         -2.88043592	          0.88721492	
          0.76000000	         -0.56668596	         -2.88514370	          0.92266506	
          0.77000000	         -0.58076407	         -2.88817461	          0.95843680	
          0.78000000	         -0.59395031	         -2.88949224	          0.99438614	
          0.79000000	         -0.60611326	         -2.88917835	          1.03040252	
          0.80000000	         -0.61713478	         -2.88742374	          1.06641513	
          0.81000000	         -0.62690675	         -2.88450999	          1.10239253	
          0.82000000	         -0.63532773	         -2.88078788	          1.13833866	
          0.83000000	         -0.64229996	         -2.87665105	          1.17428656	
          0.84000000	         -0.64771606	         -2.87250935	          1.21028603	
          0.85000000	         -0.65145437	         -2.86876161	          1.24639259	
          0.86000000	         -0.65337563	         -2.86576964	          1.28265569	
          0.87000000	         -0.65332637	         -2.86383523	          1.31910824	
          0.88000000	         -0.65115334	         -2.86318130	          1.35575989	
          0.89000000	         -0.64672352	         -2.86393818	          1.39259268	
          0.90000000	         -0.63994572	         -2.86613491	          1.42955851	
          0.91000000	         -0.63079143	         -2.86969422	          1.46657741	
          0.92000000	         -0.61931467	         -2.87443029	          1.50353653	
          0.93000000	         -0.60567199	         -2.88004863	          1.54029020	
          0.94000000	         -0.59014084	         -2.88614822	          1.57666087	
          0.95000000	         -0.57312945	         -2.89222684	          1.61243734	
          0.96000000	         -0.55517144	         -2.89769179	          1.64736803	
          0.97000000	         -0.53690311	         -2.90187884	          1.68115038	
